{
    "asset" : {
        "generator" : "Khronos glTF Blender I/O v3.2.43",
        "version" : "2.0"
    },
    "scene" : 0,
    "scenes" : [
        {
            "name" : "Scene",
            "nodes" : [
                0
            ]
        }
    ],
    "nodes" : [
        {
            "mesh" : 0,
            "name" : "imagination-loa-1_360x",
            "rotation" : [
                0.7071412801742554,
                0,
                0,
                0.7070722579956055
            ],
            "translation" : [
                3,
                0,
                0
            ]
        }
    ],
    "materials" : [
        {
            "alphaMode" : "BLEND",
            "doubleSided" : true,
            "name" : "imagination-loa-1_360x",
            "pbrMetallicRoughness" : {
                "baseColorTexture" : {
                    "index" : 0
                },
                "metallicFactor" : 0,
                "roughnessFactor" : 0.5
            }
        },
        {
            "alphaMode" : "BLEND",
            "doubleSided" : true,
            "name" : "iceland-2-1_360x",
            "pbrMetallicRoughness" : {
                "baseColorTexture" : {
                    "index" : 1
                },
                "metallicFactor" : 0,
                "roughnessFactor" : 0.5
            }
        },
        {
            "alphaMode" : "BLEND",
            "doubleSided" : true,
            "name" : "under-korsbarstradet-host-1_360x",
            "pbrMetallicRoughness" : {
                "baseColorTexture" : {
                    "index" : 2
                },
                "metallicFactor" : 0,
                "roughnessFactor" : 0.5
            }
        },
        {
            "doubleSided" : true,
            "name" : "Material.001",
            "pbrMetallicRoughness" : {
                "baseColorFactor" : [
                    0,
                    0,
                    0,
                    1
                ],
                "metallicFactor" : 0,
                "roughnessFactor" : 0.5
            }
        },
        {
            "alphaMode" : "BLEND",
            "doubleSided" : true,
            "name" : "dalahast-if-1_360x",
            "pbrMetallicRoughness" : {
                "baseColorTexture" : {
                    "index" : 3
                },
                "metallicFactor" : 0,
                "roughnessFactor" : 0.5
            }
        },
        {
            "alphaMode" : "BLEND",
            "doubleSided" : true,
            "name" : "grass-by-the-lake-1_360x",
            "pbrMetallicRoughness" : {
                "baseColorTexture" : {
                    "index" : 4
                },
                "metallicFactor" : 0,
                "roughnessFactor" : 0.5
            }
        },
        {
            "alphaMode" : "BLEND",
            "doubleSided" : true,
            "name" : "the-mountain-1_360x",
            "pbrMetallicRoughness" : {
                "baseColorTexture" : {
                    "index" : 5
                },
                "metallicFactor" : 0,
                "roughnessFactor" : 0.5
            }
        }
    ],
    "meshes" : [
        {
            "name" : "imagination-loa-1_360x",
            "primitives" : [
                {
                    "attributes" : {
                        "POSITION" : 0,
                        "NORMAL" : 1,
                        "TEXCOORD_0" : 2
                    },
                    "indices" : 3,
                    "material" : 0
                },
                {
                    "attributes" : {
                        "POSITION" : 4,
                        "NORMAL" : 5,
                        "TEXCOORD_0" : 6
                    },
                    "indices" : 3,
                    "material" : 1
                },
                {
                    "attributes" : {
                        "POSITION" : 7,
                        "NORMAL" : 8,
                        "TEXCOORD_0" : 9
                    },
                    "indices" : 3,
                    "material" : 2
                },
                {
                    "attributes" : {
                        "POSITION" : 10,
                        "NORMAL" : 11,
                        "TEXCOORD_0" : 12
                    },
                    "indices" : 13,
                    "material" : 3
                },
                {
                    "attributes" : {
                        "POSITION" : 14,
                        "NORMAL" : 15,
                        "TEXCOORD_0" : 16
                    },
                    "indices" : 3,
                    "material" : 4
                },
                {
                    "attributes" : {
                        "POSITION" : 17,
                        "NORMAL" : 18,
                        "TEXCOORD_0" : 19
                    },
                    "indices" : 3,
                    "material" : 5
                },
                {
                    "attributes" : {
                        "POSITION" : 20,
                        "NORMAL" : 21,
                        "TEXCOORD_0" : 22
                    },
                    "indices" : 3,
                    "material" : 6
                }
            ]
        }
    ],
    "textures" : [
        {
            "sampler" : 0,
            "source" : 0
        },
        {
            "sampler" : 0,
            "source" : 1
        },
        {
            "sampler" : 0,
            "source" : 2
        },
        {
            "sampler" : 0,
            "source" : 3
        },
        {
            "sampler" : 0,
            "source" : 4
        },
        {
            "sampler" : 0,
            "source" : 5
        }
    ],
    "images" : [
        {
            "bufferView" : 4,
            "mimeType" : "image/png",
            "name" : "imagination-loa-1_360x"
        },
        {
            "bufferView" : 8,
            "mimeType" : "image/png",
            "name" : "iceland-2-1_360x"
        },
        {
            "bufferView" : 12,
            "mimeType" : "image/png",
            "name" : "under-korsbarstradet-host-1_360x"
        },
        {
            "bufferView" : 20,
            "mimeType" : "image/png",
            "name" : "dalahast-if-1_360x"
        },
        {
            "bufferView" : 24,
            "mimeType" : "image/png",
            "name" : "grass-by-the-lake-1_360x"
        },
        {
            "bufferView" : 28,
            "mimeType" : "image/png",
            "name" : "the-mountain-1_360x"
        }
    ],
    "accessors" : [
        {
            "bufferView" : 0,
            "componentType" : 5126,
            "count" : 4,
            "max" : [
                -2.611351490020752,
                0.882414698600769,
                0.49991604685783386
            ],
            "min" : [
                -3.3412368297576904,
                0.8628531098365784,
                -0.5000858306884766
            ],
            "type" : "VEC3"
        },
        {
            "bufferView" : 1,
            "componentType" : 5126,
            "count" : 4,
            "type" : "VEC3"
        },
        {
            "bufferView" : 2,
            "componentType" : 5126,
            "count" : 4,
            "type" : "VEC2"
        },
        {
            "bufferView" : 3,
            "componentType" : 5123,
            "count" : 6,
            "type" : "SCALAR"
        },
        {
            "bufferView" : 5,
            "componentType" : 5126,
            "count" : 4,
            "max" : [
                -3.559689998626709,
                0.7628173828125,
                0.4999866187572479
            ],
            "min" : [
                -3.936923027038574,
                0.1373317390680313,
                -0.5000742077827454
            ],
            "type" : "VEC3"
        },
        {
            "bufferView" : 6,
            "componentType" : 5126,
            "count" : 4,
            "type" : "VEC3"
        },
        {
            "bufferView" : 7,
            "componentType" : 5126,
            "count" : 4,
            "type" : "VEC2"
        },
        {
            "bufferView" : 9,
            "componentType" : 5126,
            "count" : 4,
            "max" : [
                -2.0632171630859375,
                -0.15661995112895966,
                0.49999845027923584
            ],
            "min" : [
                -2.4539709091186523,
                -0.7766274809837341,
                -0.5000618100166321
            ],
            "type" : "VEC3"
        },
        {
            "bufferView" : 10,
            "componentType" : 5126,
            "count" : 4,
            "type" : "VEC3"
        },
        {
            "bufferView" : 11,
            "componentType" : 5126,
            "count" : 4,
            "type" : "VEC2"
        },
        {
            "bufferView" : 13,
            "componentType" : 5126,
            "count" : 120,
            "max" : [
                -2.0584216117858887,
                0.882414698600769,
                0.5000850558280945
            ],
            "min" : [
                -3.939852476119995,
                -0.8740711808204651,
                -0.5000861287117004
            ],
            "type" : "VEC3"
        },
        {
            "bufferView" : 14,
            "componentType" : 5126,
            "count" : 120,
            "type" : "VEC3"
        },
        {
            "bufferView" : 15,
            "componentType" : 5126,
            "count" : 120,
            "type" : "VEC2"
        },
        {
            "bufferView" : 16,
            "componentType" : 5123,
            "count" : 180,
            "type" : "SCALAR"
        },
        {
            "bufferView" : 17,
            "componentType" : 5126,
            "count" : 4,
            "max" : [
                -2.6344900131225586,
                -0.8738841414451599,
                0.5000850558280945
            ],
            "min" : [
                -3.3655099868774414,
                -0.8740711808204651,
                -0.4999150335788727
            ],
            "type" : "VEC3"
        },
        {
            "bufferView" : 18,
            "componentType" : 5126,
            "count" : 4,
            "type" : "VEC3"
        },
        {
            "bufferView" : 19,
            "componentType" : 5126,
            "count" : 4,
            "type" : "VEC2"
        },
        {
            "bufferView" : 21,
            "componentType" : 5126,
            "count" : 4,
            "max" : [
                -3.580775022506714,
                -0.11184495687484741,
                0.5000727772712708
            ],
            "min" : [
                -3.939852476119995,
                -0.7482451796531677,
                -0.4999891221523285
            ],
            "type" : "VEC3"
        },
        {
            "bufferView" : 22,
            "componentType" : 5126,
            "count" : 4,
            "type" : "VEC3"
        },
        {
            "bufferView" : 23,
            "componentType" : 5126,
            "count" : 4,
            "type" : "VEC2"
        },
        {
            "bufferView" : 25,
            "componentType" : 5126,
            "count" : 4,
            "max" : [
                -2.0584216117858887,
                0.7311908602714539,
                0.49999159574508667
            ],
            "min" : [
                -2.399937629699707,
                0.0862169936299324,
                -0.500071108341217
            ],
            "type" : "VEC3"
        },
        {
            "bufferView" : 26,
            "componentType" : 5126,
            "count" : 4,
            "type" : "VEC3"
        },
        {
            "bufferView" : 27,
            "componentType" : 5126,
            "count" : 4,
            "type" : "VEC2"
        }
    ],
    "bufferViews" : [
        {
            "buffer" : 0,
            "byteLength" : 48,
            "byteOffset" : 0
        },
        {
            "buffer" : 0,
            "byteLength" : 48,
            "byteOffset" : 48
        },
        {
            "buffer" : 0,
            "byteLength" : 32,
            "byteOffset" : 96
        },
        {
            "buffer" : 0,
            "byteLength" : 12,
            "byteOffset" : 128
        },
        {
            "buffer" : 0,
            "byteLength" : 293028,
            "byteOffset" : 140
        },
        {
            "buffer" : 0,
            "byteLength" : 48,
            "byteOffset" : 293168
        },
        {
            "buffer" : 0,
            "byteLength" : 48,
            "byteOffset" : 293216
        },
        {
            "buffer" : 0,
            "byteLength" : 32,
            "byteOffset" : 293264
        },
        {
            "buffer" : 0,
            "byteLength" : 225226,
            "byteOffset" : 293296
        },
        {
            "buffer" : 0,
            "byteLength" : 48,
            "byteOffset" : 518524
        },
        {
            "buffer" : 0,
            "byteLength" : 48,
            "byteOffset" : 518572
        },
        {
            "buffer" : 0,
            "byteLength" : 32,
            "byteOffset" : 518620
        },
        {
            "buffer" : 0,
            "byteLength" : 345548,
            "byteOffset" : 518652
        },
        {
            "buffer" : 0,
            "byteLength" : 1440,
            "byteOffset" : 864200
        },
        {
            "buffer" : 0,
            "byteLength" : 1440,
            "byteOffset" : 865640
        },
        {
            "buffer" : 0,
            "byteLength" : 960,
            "byteOffset" : 867080
        },
        {
            "buffer" : 0,
            "byteLength" : 360,
            "byteOffset" : 868040
        },
        {
            "buffer" : 0,
            "byteLength" : 48,
            "byteOffset" : 868400
        },
        {
            "buffer" : 0,
            "byteLength" : 48,
            "byteOffset" : 868448
        },
        {
            "buffer" : 0,
            "byteLength" : 32,
            "byteOffset" : 868496
        },
        {
            "buffer" : 0,
            "byteLength" : 191408,
            "byteOffset" : 868528
        },
        {
            "buffer" : 0,
            "byteLength" : 48,
            "byteOffset" : 1059936
        },
        {
            "buffer" : 0,
            "byteLength" : 48,
            "byteOffset" : 1059984
        },
        {
            "buffer" : 0,
            "byteLength" : 32,
            "byteOffset" : 1060032
        },
        {
            "buffer" : 0,
            "byteLength" : 144613,
            "byteOffset" : 1060064
        },
        {
            "buffer" : 0,
            "byteLength" : 48,
            "byteOffset" : 1204680
        },
        {
            "buffer" : 0,
            "byteLength" : 48,
            "byteOffset" : 1204728
        },
        {
            "buffer" : 0,
            "byteLength" : 32,
            "byteOffset" : 1204776
        },
        {
            "buffer" : 0,
            "byteLength" : 311198,
            "byteOffset" : 1204808
        }
    ],
    "samplers" : [
        {
            "magFilter" : 9729,
            "minFilter" : 9987,
            "wrapS" : 33071,
            "wrapT" : 33071
        }
    ],
    "buffers" : [
        {
            "byteLength" : 1516008,
            "uri" : "data:application/octet-stream;base64,"
        }
    ]
}
